<svg xmlns="http://www.w3.org/2000/svg" width="400" height="510" viewBox="0 0 400 510" data-palette="56e6e6-6aa4e7-acf6db-1e29c7809161" role="img" aria-labelledby="hero-mobile-dark-title hero-mobile-dark-desc"><title id="hero-mobile-dark-title">automem</title><desc id="hero-mobile-dark-desc">Carry useful session context into the next restart.</desc><defs><linearGradient id="brand" gradientUnits="userSpaceOnUse" x2="400" y2="510"><stop stop-color="#56e6e6"/><stop offset=".6" stop-color="#6aa4e7"/><stop offset="1" stop-color="#acf6db"/></linearGradient><radialGradient id="halo"><stop stop-color="#56e6e6" stop-opacity=".22"/><stop offset="1" stop-color="#050c12" stop-opacity="0"/></radialGradient><filter id="glow"><feGaussianBlur stdDeviation="5"/></filter><pattern id="grid" width="40" height="40" patternUnits="userSpaceOnUse"><path d="M40 0H0V40" fill="none" stroke="#173c41" stroke-opacity=".35" stroke-width=".6"/></pattern><marker id="arrow" viewBox="0 0 10 10" refX="8" refY="5" markerWidth="5" markerHeight="5" orient="auto"><path d="m1 1 7 4-7 4" fill="none" stroke="#56e6e6" stroke-width="1.5"/></marker></defs><style>text{font-family:Arial,"Noto Sans",sans-serif}.flow{stroke-dasharray:10 110;animation:flow 6s linear infinite}.pulse{animation:pulse 5s ease-in-out infinite}.turn{transform-box:fill-box;transform-origin:center;animation:turn 36s linear infinite}@keyframes flow{to{stroke-dashoffset:-360}}@keyframes pulse{0%,100%{opacity:.45}50%{opacity:1}}@keyframes turn{to{transform:rotate(360deg)}}@media(prefers-reduced-motion:reduce){*{animation:none!important;transform:none!important}.flow{display:none}}</style><rect width="400" height="510" rx="16" fill="#050c12"/><rect width="400" height="510" rx="16" fill="url(#grid)"/><ellipse cx="252.0" cy="219.29999999999998" rx="200.0" ry="357.0" fill="url(#halo)"/><circle cx="417.94" cy="296.77" r="1.54" fill="#6aa4e7" opacity="0.54"/><circle cx="125.31" cy="391.72" r="1.34" fill="#56e6e6" opacity="0.22"/><circle cx="130.53" cy="408.72" r="0.68" fill="#56e6e6" opacity="0.37"/><circle cx="300.22" cy="390.25" r="0.74" fill="#6aa4e7" opacity="0.26"/><circle cx="422.30" cy="379.79" r="0.91" fill="#56e6e6" opacity="0.68"/><circle cx="69.46" cy="405.61" r="1.04" fill="#56e6e6" opacity="0.50"/><circle cx="413.62" cy="378.66" r="0.79" fill="#6aa4e7" opacity="0.58"/><circle cx="335.20" cy="270.03" r="1.30" fill="#56e6e6" opacity="0.57"/><circle cx="411.53" cy="290.24" r="1.36" fill="#56e6e6" opacity="0.23"/><circle cx="71.48" cy="318.50" r="0.72" fill="#6aa4e7" opacity="0.69"/><circle cx="246.05" cy="457.86" r="0.68" fill="#56e6e6" opacity="0.44"/><circle cx="345.15" cy="474.02" r="1.06" fill="#56e6e6" opacity="0.38"/><circle cx="421.06" cy="301.51" r="1.24" fill="#6aa4e7" opacity="0.48"/><circle cx="83.07" cy="325.53" r="0.78" fill="#56e6e6" opacity="0.63"/><circle cx="287.86" cy="491.34" r="1.21" fill="#56e6e6" opacity="0.21"/><circle cx="374.12" cy="465.65" r="0.89" fill="#6aa4e7" opacity="0.79"/><circle cx="165.00" cy="425.54" r="1.18" fill="#56e6e6" opacity="0.67"/><circle cx="122.81" cy="329.37" r="1.57" fill="#56e6e6" opacity="0.48"/><circle cx="160.70" cy="320.33" r="0.87" fill="#6aa4e7" opacity="0.32"/><circle cx="249.04" cy="387.47" r="0.90" fill="#56e6e6" opacity="0.35"/><circle cx="222.18" cy="231.81" r="1.68" fill="#56e6e6" opacity="0.69"/><circle cx="108.90" cy="374.77" r="1.16" fill="#6aa4e7" opacity="0.32"/><circle cx="402.09" cy="421.11" r="1.48" fill="#56e6e6" opacity="0.26"/><circle cx="81.42" cy="297.73" r="1.20" fill="#56e6e6" opacity="0.41"/><circle cx="133.57" cy="368.96" r="1.30" fill="#6aa4e7" opacity="0.72"/><circle cx="204.23" cy="422.65" r="1.40" fill="#56e6e6" opacity="0.68"/><circle cx="224.70" cy="237.16" r="1.35" fill="#56e6e6" opacity="0.32"/><circle cx="394.76" cy="440.95" r="1.35" fill="#6aa4e7" opacity="0.68"/><circle cx="428.63" cy="386.22" r="1.40" fill="#56e6e6" opacity="0.57"/><circle cx="338.60" cy="335.96" r="1.03" fill="#56e6e6" opacity="0.29"/><circle cx="254.98" cy="463.17" r="1.39" fill="#6aa4e7" opacity="0.79"/><circle cx="254.07" cy="263.26" r="1.01" fill="#56e6e6" opacity="0.72"/><circle cx="288.20" cy="269.07" r="1.54" fill="#56e6e6" opacity="0.58"/><circle cx="372.44" cy="337.59" r="1.49" fill="#6aa4e7" opacity="0.77"/><circle cx="263.49" cy="228.46" r="0.86" fill="#56e6e6" opacity="0.26"/><circle cx="249.52" cy="274.54" r="1.16" fill="#56e6e6" opacity="0.33"/><circle cx="439.53" cy="368.39" r="0.93" fill="#6aa4e7" opacity="0.67"/><circle cx="241.03" cy="461.21" r="1.55" fill="#56e6e6" opacity="0.25"/><circle cx="373.97" cy="368.19" r="1.24" fill="#56e6e6" opacity="0.54"/><circle cx="353.20" cy="319.91" r="1.21" fill="#6aa4e7" opacity="0.48"/><circle cx="433.64" cy="368.32" r="1.13" fill="#56e6e6" opacity="0.63"/><circle cx="248.30" cy="411.76" r="1.06" fill="#56e6e6" opacity="0.33"/><circle cx="166.60" cy="367.49" r="1.05" fill="#6aa4e7" opacity="0.58"/><circle cx="358.42" cy="469.07" r="1.49" fill="#56e6e6" opacity="0.64"/><circle cx="108.78" cy="448.47" r="0.89" fill="#56e6e6" opacity="0.20"/><circle cx="269.77" cy="500.90" r="0.66" fill="#6aa4e7" opacity="0.22"/><circle cx="214.53" cy="286.52" r="1.29" fill="#56e6e6" opacity="0.42"/><circle cx="255.71" cy="222.69" r="1.04" fill="#56e6e6" opacity="0.24"/><circle cx="83.10" cy="390.55" r="1.12" fill="#6aa4e7" opacity="0.71"/><circle cx="374.67" cy="263.74" r="0.82" fill="#56e6e6" opacity="0.42"/><circle cx="284.27" cy="391.36" r="1.20" fill="#56e6e6" opacity="0.20"/><circle cx="128.76" cy="445.03" r="1.57" fill="#6aa4e7" opacity="0.60"/><circle cx="304.57" cy="322.74" r="1.59" fill="#56e6e6" opacity="0.33"/><circle cx="246.61" cy="404.21" r="1.24" fill="#56e6e6" opacity="0.27"/><circle cx="137.63" cy="266.32" r="1.50" fill="#6aa4e7" opacity="0.22"/><circle cx="85.07" cy="367.23" r="1.35" fill="#56e6e6" opacity="0.26"/><circle cx="242.93" cy="500.10" r="1.49" fill="#56e6e6" opacity="0.64"/><circle cx="300.56" cy="487.07" r="1.62" fill="#6aa4e7" opacity="0.21"/><circle cx="388.69" cy="275.40" r="0.62" fill="#56e6e6" opacity="0.58"/><circle cx="76.61" cy="410.31" r="0.61" fill="#56e6e6" opacity="0.77"/><circle cx="207.43" cy="436.71" r="0.66" fill="#6aa4e7" opacity="0.57"/><circle cx="288.74" cy="443.51" r="1.25" fill="#56e6e6" opacity="0.70"/><circle cx="209.68" cy="232.82" r="1.32" fill="#56e6e6" opacity="0.39"/><circle cx="363.11" cy="319.86" r="1.35" fill="#6aa4e7" opacity="0.72"/><circle cx="377.68" cy="347.75" r="1.17" fill="#56e6e6" opacity="0.41"/><circle cx="176.80" cy="463.34" r="1.62" fill="#56e6e6" opacity="0.76"/><circle cx="168.62" cy="476.65" r="0.97" fill="#6aa4e7" opacity="0.48"/><circle cx="193.40" cy="300.89" r="0.82" fill="#56e6e6" opacity="0.72"/><circle cx="293.21" cy="298.14" r="0.65" fill="#56e6e6" opacity="0.32"/><circle cx="92.65" cy="435.31" r="1.49" fill="#6aa4e7" opacity="0.66"/><circle cx="281.97" cy="268.18" r="0.95" fill="#56e6e6" opacity="0.52"/><circle cx="165.92" cy="309.69" r="0.90" fill="#56e6e6" opacity="0.33"/><circle cx="121.32" cy="465.00" r="1.43" fill="#6aa4e7" opacity="0.73"/><circle cx="108.96" cy="444.29" r="0.87" fill="#56e6e6" opacity="0.42"/><circle cx="164.18" cy="482.50" r="1.59" fill="#56e6e6" opacity="0.51"/><circle cx="140.27" cy="263.88" r="0.93" fill="#6aa4e7" opacity="0.73"/><circle cx="240.00" cy="404.02" r="1.28" fill="#56e6e6" opacity="0.40"/><circle cx="402.54" cy="316.85" r="1.61" fill="#56e6e6" opacity="0.65"/><circle cx="103.59" cy="450.85" r="0.86" fill="#6aa4e7" opacity="0.41"/><circle cx="310.69" cy="237.76" r="0.65" fill="#56e6e6" opacity="0.47"/><circle cx="300.28" cy="264.76" r="1.57" fill="#56e6e6" opacity="0.56"/><circle cx="175.54" cy="455.09" r="1.07" fill="#6aa4e7" opacity="0.67"/><circle cx="390.52" cy="307.32" r="1.52" fill="#56e6e6" opacity="0.43"/><circle cx="256.29" cy="471.64" r="0.61" fill="#56e6e6" opacity="0.26"/><circle cx="228.18" cy="225.08" r="1.42" fill="#6aa4e7" opacity="0.71"/><circle cx="416.78" cy="409.59" r="1.50" fill="#56e6e6" opacity="0.34"/><circle cx="316.60" cy="286.61" r="1.55" fill="#56e6e6" opacity="0.35"/><circle cx="239.26" cy="426.77" r="1.60" fill="#6aa4e7" opacity="0.69"/><circle cx="350.91" cy="382.78" r="0.62" fill="#56e6e6" opacity="0.59"/><circle cx="383.20" cy="461.10" r="0.99" fill="#56e6e6" opacity="0.52"/><circle cx="218.69" cy="342.23" r="1.44" fill="#6aa4e7" opacity="0.73"/><circle cx="414.90" cy="296.11" r="0.90" fill="#56e6e6" opacity="0.44"/><circle cx="404.15" cy="402.12" r="0.82" fill="#56e6e6" opacity="0.56"/><circle cx="286.87" cy="479.12" r="1.08" fill="#6aa4e7" opacity="0.28"/><circle cx="333.94" cy="360.28" r="1.08" fill="#56e6e6" opacity="0.25"/><circle cx="161.45" cy="431.15" r="1.69" fill="#56e6e6" opacity="0.77"/><circle cx="338.77" cy="460.43" r="1.20" fill="#6aa4e7" opacity="0.23"/><circle cx="428.75" cy="356.58" r="0.73" fill="#56e6e6" opacity="0.74"/><circle cx="191.41" cy="311.72" r="0.83" fill="#56e6e6" opacity="0.47"/><circle cx="117.53" cy="398.86" r="0.79" fill="#6aa4e7" opacity="0.72"/><circle cx="213.08" cy="393.57" r="1.52" fill="#56e6e6" opacity="0.66"/><circle cx="87.79" cy="431.88" r="0.68" fill="#56e6e6" opacity="0.35"/><circle cx="167.66" cy="483.95" r="0.89" fill="#6aa4e7" opacity="0.28"/><circle cx="159.06" cy="329.30" r="0.79" fill="#56e6e6" opacity="0.74"/><circle cx="310.86" cy="243.46" r="1.07" fill="#56e6e6" opacity="0.35"/><circle cx="193.27" cy="238.19" r="0.63" fill="#6aa4e7" opacity="0.71"/><circle cx="78.72" cy="369.64" r="0.64" fill="#56e6e6" opacity="0.23"/><circle cx="277.27" cy="248.92" r="1.24" fill="#56e6e6" opacity="0.70"/><circle cx="174.86" cy="441.27" r="1.32" fill="#6aa4e7" opacity="0.75"/><circle cx="394.53" cy="275.57" r="0.73" fill="#56e6e6" opacity="0.68"/><circle cx="92.16" cy="439.70" r="0.84" fill="#56e6e6" opacity="0.40"/><circle cx="216.47" cy="322.99" r="1.55" fill="#6aa4e7" opacity="0.51"/><circle cx="378.72" cy="357.24" r="0.90" fill="#56e6e6" opacity="0.78"/><circle cx="256.21" cy="258.85" r="1.06" fill="#56e6e6" opacity="0.50"/><circle cx="209.97" cy="492.78" r="1.06" fill="#6aa4e7" opacity="0.50"/><circle cx="133.22" cy="352.42" r="1.14" fill="#56e6e6" opacity="0.41"/><circle cx="225.08" cy="497.50" r="1.60" fill="#56e6e6" opacity="0.59"/><circle cx="273.75" cy="493.76" r="1.25" fill="#6aa4e7" opacity="0.33"/><circle cx="350.47" cy="385.44" r="0.86" fill="#56e6e6" opacity="0.58"/><circle cx="384.55" cy="408.92" r="1.62" fill="#56e6e6" opacity="0.51"/><circle cx="79.63" cy="412.68" r="0.81" fill="#6aa4e7" opacity="0.54"/><circle cx="189.35" cy="488.61" r="1.34" fill="#56e6e6" opacity="0.77"/><circle cx="142.16" cy="378.90" r="1.41" fill="#56e6e6" opacity="0.65"/><circle cx="174.42" cy="343.42" r="0.90" fill="#6aa4e7" opacity="0.30"/><circle cx="252.33" cy="298.94" r="1.02" fill="#56e6e6" opacity="0.37"/><circle cx="253.70" cy="465.10" r="1.65" fill="#56e6e6" opacity="0.42"/><circle cx="422.07" cy="355.13" r="0.94" fill="#6aa4e7" opacity="0.65"/><circle cx="73.63" cy="310.83" r="1.27" fill="#56e6e6" opacity="0.28"/><circle cx="332.91" cy="236.23" r="1.10" fill="#56e6e6" opacity="0.66"/><circle cx="388.87" cy="282.22" r="1.04" fill="#6aa4e7" opacity="0.57"/><circle cx="309.37" cy="331.60" r="1.03" fill="#56e6e6" opacity="0.24"/><circle cx="344.75" cy="264.02" r="1.21" fill="#56e6e6" opacity="0.72"/><circle cx="210.37" cy="295.92" r="1.16" fill="#6aa4e7" opacity="0.73"/><circle cx="388.54" cy="343.13" r="0.90" fill="#56e6e6" opacity="0.47"/><circle cx="369.52" cy="254.62" r="1.14" fill="#56e6e6" opacity="0.26"/><circle cx="368.69" cy="292.57" r="1.46" fill="#6aa4e7" opacity="0.32"/><circle cx="371.73" cy="274.83" r="0.63" fill="#56e6e6" opacity="0.42"/><circle cx="130.33" cy="417.65" r="0.96" fill="#56e6e6" opacity="0.67"/><circle cx="97.94" cy="280.96" r="1.54" fill="#6aa4e7" opacity="0.24"/><circle cx="301.71" cy="464.76" r="1.49" fill="#56e6e6" opacity="0.37"/><circle cx="100.44" cy="277.10" r="1.30" fill="#56e6e6" opacity="0.50"/><circle cx="82.49" cy="343.80" r="0.99" fill="#6aa4e7" opacity="0.51"/><circle cx="103.61" cy="306.46" r="1.26" fill="#56e6e6" opacity="0.57"/><circle cx="436.56" cy="362.16" r="1.08" fill="#56e6e6" opacity="0.22"/><circle cx="397.12" cy="275.06" r="0.74" fill="#6aa4e7" opacity="0.39"/><circle cx="255.72" cy="329.71" r="1.54" fill="#56e6e6" opacity="0.40"/><circle cx="180.21" cy="271.70" r="0.66" fill="#56e6e6" opacity="0.21"/><circle cx="348.05" cy="248.66" r="1.09" fill="#6aa4e7" opacity="0.37"/><circle cx="366.64" cy="407.40" r="1.17" fill="#56e6e6" opacity="0.78"/><circle cx="425.42" cy="407.05" r="1.41" fill="#56e6e6" opacity="0.76"/><circle cx="268.18" cy="471.51" r="0.89" fill="#6aa4e7" opacity="0.45"/><circle cx="427.94" cy="407.12" r="1.39" fill="#56e6e6" opacity="0.75"/><circle cx="337.62" cy="478.42" r="0.99" fill="#56e6e6" opacity="0.28"/><circle cx="146.58" cy="475.14" r="1.54" fill="#6aa4e7" opacity="0.78"/><circle cx="262.98" cy="339.40" r="1.66" fill="#56e6e6" opacity="0.71"/><circle cx="112.81" cy="318.44" r="1.54" fill="#56e6e6" opacity="0.52"/><circle cx="156.77" cy="389.51" r="1.29" fill="#6aa4e7" opacity="0.78"/><circle cx="280.00" cy="337.76" r="0.71" fill="#56e6e6" opacity="0.76"/><circle cx="129.83" cy="254.97" r="0.89" fill="#56e6e6" opacity="0.56"/><circle cx="268.73" cy="312.00" r="1.25" fill="#6aa4e7" opacity="0.47"/><circle cx="106.72" cy="437.73" r="1.43" fill="#56e6e6" opacity="0.49"/><circle cx="243.33" cy="222.90" r="1.68" fill="#56e6e6" opacity="0.30"/><circle cx="223.86" cy="494.55" r="0.86" fill="#6aa4e7" opacity="0.53"/><circle cx="325.65" cy="490.03" r="1.00" fill="#56e6e6" opacity="0.59"/><circle cx="106.93" cy="270.10" r="1.61" fill="#56e6e6" opacity="0.57"/><circle cx="223.79" cy="253.70" r="1.44" fill="#6aa4e7" opacity="0.23"/><circle cx="320.96" cy="418.23" r="1.44" fill="#56e6e6" opacity="0.66"/><circle cx="170.25" cy="472.75" r="1.45" fill="#56e6e6" opacity="0.67"/><circle cx="153.40" cy="430.56" r="1.09" fill="#6aa4e7" opacity="0.27"/><circle cx="374.81" cy="339.21" r="1.64" fill="#56e6e6" opacity="0.70"/><circle cx="427.44" cy="321.19" r="0.61" fill="#56e6e6" opacity="0.29"/><circle cx="377.39" cy="409.87" r="0.74" fill="#6aa4e7" opacity="0.21"/><circle cx="183.69" cy="309.19" r="0.82" fill="#56e6e6" opacity="0.63"/><circle cx="248.97" cy="428.97" r="1.48" fill="#56e6e6" opacity="0.41"/><circle cx="217.18" cy="429.26" r="1.20" fill="#6aa4e7" opacity="0.61"/><circle cx="218.74" cy="284.96" r="1.64" fill="#56e6e6" opacity="0.29"/><circle cx="85.47" cy="422.26" r="0.86" fill="#56e6e6" opacity="0.68"/><circle cx="239.73" cy="308.99" r="1.01" fill="#6aa4e7" opacity="0.68"/><circle cx="320.43" cy="374.14" r="1.09" fill="#56e6e6" opacity="0.43"/><circle cx="139.06" cy="298.62" r="0.82" fill="#56e6e6" opacity="0.37"/><circle cx="418.98" cy="325.32" r="0.92" fill="#6aa4e7" opacity="0.46"/><circle cx="391.99" cy="364.10" r="1.48" fill="#56e6e6" opacity="0.50"/><circle cx="169.71" cy="273.19" r="1.38" fill="#56e6e6" opacity="0.21"/><circle cx="214.15" cy="417.86" r="1.35" fill="#6aa4e7" opacity="0.50"/><circle cx="115.59" cy="376.43" r="1.55" fill="#56e6e6" opacity="0.37"/><circle cx="349.03" cy="461.03" r="0.82" fill="#56e6e6" opacity="0.34"/><circle cx="395.78" cy="316.66" r="1.10" fill="#6aa4e7" opacity="0.23"/><circle cx="87.84" cy="422.13" r="1.65" fill="#56e6e6" opacity="0.51"/><circle cx="152.62" cy="306.52" r="1.24" fill="#56e6e6" opacity="0.66"/><circle cx="373.11" cy="378.98" r="1.16" fill="#6aa4e7" opacity="0.55"/><circle cx="191.14" cy="231.06" r="1.05" fill="#56e6e6" opacity="0.78"/><circle cx="158.34" cy="343.18" r="1.48" fill="#56e6e6" opacity="0.80"/><circle cx="270.78" cy="302.85" r="1.58" fill="#6aa4e7" opacity="0.27"/><circle cx="251.33" cy="335.33" r="1.48" fill="#56e6e6" opacity="0.55"/><circle cx="407.32" cy="386.92" r="1.56" fill="#56e6e6" opacity="0.76"/><circle cx="321.33" cy="408.19" r="1.01" fill="#6aa4e7" opacity="0.73"/><circle cx="223.95" cy="434.58" r="1.17" fill="#56e6e6" opacity="0.28"/><circle cx="212.69" cy="227.71" r="1.47" fill="#56e6e6" opacity="0.71"/><circle cx="343.69" cy="478.04" r="0.78" fill="#6aa4e7" opacity="0.45"/><circle cx="338.19" cy="389.97" r="1.37" fill="#56e6e6" opacity="0.44"/><circle cx="63.34" cy="344.35" r="1.07" fill="#56e6e6" opacity="0.44"/><circle cx="188.09" cy="379.97" r="0.80" fill="#6aa4e7" opacity="0.70"/><circle cx="128.43" cy="438.32" r="0.81" fill="#56e6e6" opacity="0.46"/><circle cx="108.82" cy="409.90" r="0.72" fill="#56e6e6" opacity="0.56"/><circle cx="354.57" cy="447.78" r="1.25" fill="#6aa4e7" opacity="0.65"/><circle cx="303.77" cy="253.99" r="1.01" fill="#56e6e6" opacity="0.72"/><circle cx="144.98" cy="467.17" r="1.24" fill="#56e6e6" opacity="0.71"/><circle cx="105.19" cy="434.36" r="1.60" fill="#6aa4e7" opacity="0.63"/><circle cx="209.89" cy="228.12" r="1.64" fill="#56e6e6" opacity="0.22"/><circle cx="164.05" cy="452.98" r="1.04" fill="#56e6e6" opacity="0.53"/><circle cx="314.52" cy="277.69" r="0.79" fill="#6aa4e7" opacity="0.47"/><circle cx="155.75" cy="362.17" r="0.68" fill="#56e6e6" opacity="0.76"/><circle cx="411.85" cy="356.39" r="0.74" fill="#56e6e6" opacity="0.74"/><circle cx="423.65" cy="372.60" r="1.43" fill="#6aa4e7" opacity="0.48"/><circle cx="360.79" cy="423.56" r="1.07" fill="#56e6e6" opacity="0.46"/><circle cx="202.21" cy="494.27" r="1.62" fill="#56e6e6" opacity="0.71"/><circle cx="144.10" cy="424.28" r="1.37" fill="#6aa4e7" opacity="0.37"/><circle cx="212.88" cy="364.29" r="1.28" fill="#56e6e6" opacity="0.52"/><circle cx="251.73" cy="281.71" r="1.63" fill="#56e6e6" opacity="0.47"/><circle cx="156.77" cy="285.22" r="1.14" fill="#6aa4e7" opacity="0.26"/><circle cx="407.26" cy="426.01" r="1.45" fill="#56e6e6" opacity="0.48"/><circle cx="266.69" cy="432.05" r="0.91" fill="#56e6e6" opacity="0.64"/><circle cx="320.52" cy="233.73" r="0.66" fill="#6aa4e7" opacity="0.42"/><circle cx="240.34" cy="222.30" r="1.40" fill="#56e6e6" opacity="0.42"/><circle cx="170.12" cy="236.80" r="0.99" fill="#56e6e6" opacity="0.48"/><circle cx="81.58" cy="357.27" r="1.12" fill="#6aa4e7" opacity="0.21"/><circle cx="134.89" cy="263.48" r="1.07" fill="#56e6e6" opacity="0.35"/><circle cx="155.65" cy="480.44" r="1.04" fill="#56e6e6" opacity="0.61"/><circle cx="233.55" cy="245.77" r="1.68" fill="#6aa4e7" opacity="0.47"/><circle cx="176.67" cy="277.86" r="1.37" fill="#56e6e6" opacity="0.28"/><circle cx="291.67" cy="339.37" r="1.15" fill="#56e6e6" opacity="0.37"/><circle cx="428.84" cy="314.78" r="1.38" fill="#6aa4e7" opacity="0.64"/><circle cx="403.48" cy="361.80" r="1.52" fill="#56e6e6" opacity="0.38"/><circle cx="145.51" cy="336.74" r="0.65" fill="#56e6e6" opacity="0.68"/><circle cx="64.13" cy="387.33" r="1.62" fill="#6aa4e7" opacity="0.64"/><circle cx="227.16" cy="460.23" r="1.18" fill="#56e6e6" opacity="0.54"/><circle cx="251.98" cy="265.47" r="1.53" fill="#56e6e6" opacity="0.34"/><circle cx="345.77" cy="275.52" r="1.26" fill="#6aa4e7" opacity="0.24"/><circle cx="316.02" cy="470.40" r="0.89" fill="#56e6e6" opacity="0.21"/><circle cx="207.29" cy="248.17" r="1.01" fill="#56e6e6" opacity="0.35"/><circle cx="347.36" cy="248.33" r="1.50" fill="#6aa4e7" opacity="0.66"/><circle cx="215.25" cy="416.97" r="0.62" fill="#56e6e6" opacity="0.61"/><circle cx="398.23" cy="346.65" r="1.39" fill="#56e6e6" opacity="0.59"/><circle cx="190.39" cy="481.80" r="1.51" fill="#6aa4e7" opacity="0.51"/><circle cx="165.31" cy="458.22" r="1.03" fill="#56e6e6" opacity="0.54"/><circle cx="329.05" cy="484.24" r="1.50" fill="#56e6e6" opacity="0.28"/><circle cx="297.03" cy="474.27" r="0.77" fill="#6aa4e7" opacity="0.75"/><circle cx="193.12" cy="234.60" r="1.04" fill="#56e6e6" opacity="0.70"/><circle cx="337.91" cy="273.29" r="1.46" fill="#56e6e6" opacity="0.36"/><circle cx="128.16" cy="344.84" r="1.37" fill="#6aa4e7" opacity="0.40"/><circle cx="218.78" cy="419.44" r="1.21" fill="#56e6e6" opacity="0.71"/><circle cx="401.00" cy="384.30" r="1.51" fill="#56e6e6" opacity="0.30"/><circle cx="367.04" cy="429.97" r="1.60" fill="#6aa4e7" opacity="0.29"/><circle cx="216.82" cy="499.85" r="1.30" fill="#56e6e6" opacity="0.37"/><circle cx="324.59" cy="367.95" r="1.40" fill="#56e6e6" opacity="0.25"/><circle cx="406.40" cy="392.74" r="1.53" fill="#6aa4e7" opacity="0.80"/><circle cx="271.48" cy="329.05" r="1.27" fill="#56e6e6" opacity="0.41"/><circle cx="106.77" cy="395.50" r="0.75" fill="#56e6e6" opacity="0.61"/><circle cx="309.35" cy="495.00" r="0.88" fill="#6aa4e7" opacity="0.69"/><circle cx="192.41" cy="495.40" r="1.10" fill="#56e6e6" opacity="0.61"/><circle cx="246.29" cy="483.20" r="0.82" fill="#56e6e6" opacity="0.40"/><circle cx="239.00" cy="242.06" r="1.67" fill="#6aa4e7" opacity="0.47"/><circle cx="400.04" cy="305.07" r="1.28" fill="#56e6e6" opacity="0.79"/><circle cx="352.85" cy="250.15" r="1.33" fill="#56e6e6" opacity="0.22"/><circle cx="273.25" cy="295.54" r="1.39" fill="#6aa4e7" opacity="0.77"/><circle cx="78.91" cy="421.57" r="1.15" fill="#56e6e6" opacity="0.72"/><circle cx="338.18" cy="472.31" r="0.71" fill="#56e6e6" opacity="0.65"/><circle cx="203.11" cy="230.02" r="1.36" fill="#6aa4e7" opacity="0.58"/><circle cx="231.43" cy="222.77" r="1.25" fill="#56e6e6" opacity="0.25"/><circle cx="273.72" cy="229.13" r="0.99" fill="#56e6e6" opacity="0.21"/><circle cx="388.86" cy="432.82" r="1.65" fill="#6aa4e7" opacity="0.51"/><circle cx="244.46" cy="487.26" r="1.37" fill="#56e6e6" opacity="0.66"/><circle cx="80.85" cy="401.22" r="0.73" fill="#56e6e6" opacity="0.47"/><circle cx="328.22" cy="371.35" r="0.92" fill="#6aa4e7" opacity="0.67"/><circle cx="230.47" cy="396.69" r="0.68" fill="#56e6e6" opacity="0.68"/><circle cx="128.76" cy="455.75" r="1.35" fill="#56e6e6" opacity="0.65"/><circle cx="138.87" cy="380.72" r="1.52" fill="#6aa4e7" opacity="0.38"/><circle cx="132.67" cy="393.72" r="0.65" fill="#56e6e6" opacity="0.66"/><circle cx="152.63" cy="272.92" r="1.22" fill="#56e6e6" opacity="0.35"/><circle cx="215.97" cy="231.05" r="1.09" fill="#6aa4e7" opacity="0.27"/><circle cx="202.68" cy="440.39" r="0.80" fill="#56e6e6" opacity="0.72"/><circle cx="131.14" cy="468.80" r="1.13" fill="#56e6e6" opacity="0.57"/><circle cx="222.51" cy="357.95" r="0.64" fill="#6aa4e7" opacity="0.25"/><circle cx="151.84" cy="249.49" r="1.66" fill="#56e6e6" opacity="0.43"/><circle cx="136.46" cy="461.92" r="1.54" fill="#56e6e6" opacity="0.35"/><circle cx="327.73" cy="478.75" r="0.86" fill="#6aa4e7" opacity="0.20"/><circle cx="400.33" cy="312.41" r="0.89" fill="#56e6e6" opacity="0.32"/><circle cx="385.66" cy="326.88" r="1.01" fill="#56e6e6" opacity="0.61"/><circle cx="417.22" cy="398.74" r="0.88" fill="#6aa4e7" opacity="0.75"/><circle cx="211.96" cy="452.39" r="1.49" fill="#56e6e6" opacity="0.47"/><circle cx="282.11" cy="467.22" r="1.59" fill="#56e6e6" opacity="0.38"/><circle cx="255.45" cy="460.34" r="1.28" fill="#6aa4e7" opacity="0.75"/><circle cx="213.07" cy="466.55" r="1.56" fill="#56e6e6" opacity="0.39"/><circle cx="196.97" cy="227.56" r="1.29" fill="#56e6e6" opacity="0.72"/><circle cx="125.17" cy="284.24" r="1.14" fill="#6aa4e7" opacity="0.64"/><circle cx="66.97" cy="393.36" r="0.88" fill="#56e6e6" opacity="0.59"/><circle cx="234.80" cy="396.53" r="1.62" fill="#56e6e6" opacity="0.53"/><circle cx="399.04" cy="317.37" r="1.56" fill="#6aa4e7" opacity="0.60"/><circle cx="229.89" cy="500.73" r="1.01" fill="#56e6e6" opacity="0.55"/><circle cx="333.94" cy="470.07" r="1.24" fill="#56e6e6" opacity="0.76"/><circle cx="229.54" cy="495.33" r="1.69" fill="#6aa4e7" opacity="0.22"/><circle cx="269.47" cy="295.62" r="1.10" fill="#56e6e6" opacity="0.36"/><circle cx="387.54" cy="342.28" r="1.68" fill="#56e6e6" opacity="0.66"/><circle cx="86.38" cy="299.55" r="1.03" fill="#6aa4e7" opacity="0.31"/><circle cx="158.70" cy="301.65" r="0.92" fill="#56e6e6" opacity="0.43"/><circle cx="63.46" cy="337.12" r="1.51" fill="#56e6e6" opacity="0.62"/><circle cx="259.17" cy="222.18" r="0.93" fill="#6aa4e7" opacity="0.23"/><circle cx="378.04" cy="454.99" r="1.56" fill="#56e6e6" opacity="0.70"/><circle cx="315.19" cy="427.12" r="1.67" fill="#56e6e6" opacity="0.64"/><circle cx="305.85" cy="277.69" r="1.52" fill="#6aa4e7" opacity="0.78"/><circle cx="128.99" cy="320.53" r="1.09" fill="#56e6e6" opacity="0.73"/><circle cx="368.55" cy="413.47" r="0.68" fill="#56e6e6" opacity="0.50"/><circle cx="257.29" cy="236.67" r="0.69" fill="#6aa4e7" opacity="0.40"/><circle cx="91.14" cy="438.73" r="0.85" fill="#56e6e6" opacity="0.73"/><circle cx="425.55" cy="335.99" r="0.67" fill="#56e6e6" opacity="0.23"/><circle cx="338.24" cy="245.26" r="1.45" fill="#6aa4e7" opacity="0.36"/><circle cx="424.93" cy="320.44" r="0.61" fill="#56e6e6" opacity="0.23"/><circle cx="155.64" cy="240.96" r="1.50" fill="#56e6e6" opacity="0.25"/><circle cx="176.04" cy="345.70" r="1.15" fill="#6aa4e7" opacity="0.78"/><circle cx="198.78" cy="273.99" r="1.29" fill="#56e6e6" opacity="0.79"/><circle cx="142.50" cy="288.43" r="1.29" fill="#56e6e6" opacity="0.52"/><circle cx="332.90" cy="376.08" r="1.44" fill="#6aa4e7" opacity="0.64"/><circle cx="129.04" cy="377.87" r="1.10" fill="#56e6e6" opacity="0.52"/><circle cx="413.83" cy="291.77" r="1.29" fill="#56e6e6" opacity="0.57"/><circle cx="90.13" cy="288.79" r="1.55" fill="#6aa4e7" opacity="0.21"/><circle cx="110.28" cy="450.99" r="1.60" fill="#56e6e6" opacity="0.33"/><circle cx="385.85" cy="266.74" r="1.55" fill="#56e6e6" opacity="0.36"/><circle cx="251.59" cy="492.94" r="1.28" fill="#6aa4e7" opacity="0.40"/><circle cx="184.42" cy="490.63" r="1.59" fill="#56e6e6" opacity="0.68"/><circle cx="201.36" cy="226.84" r="0.79" fill="#56e6e6" opacity="0.74"/><circle cx="431.55" cy="379.81" r="1.02" fill="#6aa4e7" opacity="0.39"/><circle cx="213.94" cy="375.96" r="1.69" fill="#56e6e6" opacity="0.40"/><circle cx="279.24" cy="265.66" r="0.65" fill="#56e6e6" opacity="0.43"/><circle cx="245.99" cy="459.74" r="1.43" fill="#6aa4e7" opacity="0.63"/><circle cx="316.80" cy="443.14" r="1.17" fill="#56e6e6" opacity="0.59"/><circle cx="91.38" cy="288.81" r="1.35" fill="#56e6e6" opacity="0.34"/><circle cx="156.82" cy="437.20" r="1.18" fill="#6aa4e7" opacity="0.48"/><circle cx="378.10" cy="390.76" r="0.86" fill="#56e6e6" opacity="0.25"/><circle cx="87.90" cy="434.09" r="0.85" fill="#56e6e6" opacity="0.53"/><circle cx="397.62" cy="422.21" r="0.78" fill="#6aa4e7" opacity="0.29"/><circle cx="169.54" cy="235.57" r="1.51" fill="#56e6e6" opacity="0.79"/><circle cx="250.02" cy="423.38" r="1.68" fill="#56e6e6" opacity="0.27"/><circle cx="284.92" cy="388.26" r="1.31" fill="#6aa4e7" opacity="0.54"/><circle cx="186.75" cy="239.35" r="1.61" fill="#56e6e6" opacity="0.28"/><circle cx="102.27" cy="428.92" r="0.68" fill="#56e6e6" opacity="0.80"/><circle cx="378.47" cy="267.85" r="1.68" fill="#6aa4e7" opacity="0.45"/><circle cx="304.84" cy="227.99" r="0.61" fill="#56e6e6" opacity="0.21"/><circle cx="257.42" cy="319.87" r="0.62" fill="#56e6e6" opacity="0.32"/><circle cx="408.63" cy="294.96" r="1.14" fill="#6aa4e7" opacity="0.69"/><circle cx="387.46" cy="457.72" r="1.17" fill="#56e6e6" opacity="0.77"/><circle cx="106.89" cy="405.31" r="1.03" fill="#56e6e6" opacity="0.59"/><circle cx="151.85" cy="286.09" r="0.95" fill="#6aa4e7" opacity="0.74"/><circle cx="415.15" cy="363.80" r="1.43" fill="#56e6e6" opacity="0.43"/><circle cx="289.49" cy="231.72" r="1.53" fill="#56e6e6" opacity="0.65"/><circle cx="124.06" cy="400.41" r="1.19" fill="#6aa4e7" opacity="0.75"/><circle cx="85.63" cy="431.86" r="1.69" fill="#56e6e6" opacity="0.65"/><circle cx="106.22" cy="312.90" r="1.05" fill="#56e6e6" opacity="0.42"/><circle cx="226.48" cy="257.54" r="1.58" fill="#6aa4e7" opacity="0.27"/><circle cx="394.30" cy="453.02" r="0.81" fill="#56e6e6" opacity="0.62"/><circle cx="115.87" cy="429.65" r="1.65" fill="#56e6e6" opacity="0.45"/><text x="28" y="50" fill="#95b9c4" font-size="13" text-anchor="start" font-weight="400">PROJECT / OPEN SOURCE</text><text x="28" y="117" font-size="46.0" fill="url(#brand)" font-weight="700">automem</text><text x="28" y="163.0" fill="#eefdf8" font-size="21" text-anchor="start" font-weight="400">Carry useful session context</text><text x="28" y="192.4" fill="#eefdf8" font-size="21" text-anchor="start" font-weight="400">into the next restart.</text><path d="M126.5 418.0L204.4 341.0L278.5 369.0L360.2 292.0" fill="none" stroke="#56e6e6" stroke-width="1.5" marker-end="url(#arrow)"/><path d="M126.5 418.0L204.4 341.0L278.5 369.0L360.2 292.0" class="flow" fill="none" stroke="#acf6db" stroke-width="2"/><circle cx="126.5" cy="418.0" r="12" fill="#acf6db" opacity=".5" filter="url(#glow)"/><circle class="pulse" cx="126.5" cy="418.0" r="3" fill="#acf6db"/><circle cx="204.4" cy="341.0" r="12" fill="#acf6db" opacity=".5" filter="url(#glow)"/><circle class="pulse" cx="204.4" cy="341.0" r="3" fill="#acf6db"/><circle cx="278.5" cy="369.0" r="12" fill="#acf6db" opacity=".5" filter="url(#glow)"/><circle class="pulse" cx="278.5" cy="369.0" r="3" fill="#acf6db"/><circle cx="360.2" cy="292.0" r="12" fill="#acf6db" opacity=".5" filter="url(#glow)"/><circle class="pulse" cx="360.2" cy="292.0" r="3" fill="#acf6db"/></svg>
